<?xml version="1.0" encoding="utf-8"?>
<!-- Generator: Adobe Illustrator 18.1.1, SVG Export Plug-In . SVG Version: 6.00 Build 0)  -->
<svg version="1.1" id="Layer_1" xmlns="http://www.w3.org/2000/svg" xmlns:xlink="http://www.w3.org/1999/xlink" x="0px" y="0px"
	 viewBox="-361 621.1 40 40" enable-background="new -361 621.1 40 40" xml:space="preserve">
<g>
	<path fill="#1F1F1F" d="M-326.9,633.9l-17.4,17.4l-6.7-6.7l17.4-17.4l0-0.3l-3.4-3l-21.5,21.1v0.4l13.5,13.4l21.5-21.4l0-0.3
		L-326.9,633.9z"/>
	
		<radialGradient id="SVGID_1_" cx="-1291.394" cy="3085.5425" r="42.1512" gradientTransform="matrix(-0.279 0.865 0.7062 0.2278 -2871.4014 1034.7708)" gradientUnits="userSpaceOnUse">
		<stop  offset="1.100000e-02" style="stop-color:#FFFFFF"/>
		<stop  offset="0.4339" style="stop-color:#E0E0E0"/>
		<stop  offset="0.4568" style="stop-color:#D8D8D8"/>
		<stop  offset="0.5732" style="stop-color:#B0B0B0"/>
		<stop  offset="0.6879" style="stop-color:#919191"/>
		<stop  offset="0.799" style="stop-color:#7B7B7B"/>
		<stop  offset="0.9049" style="stop-color:#6D6D6D"/>
		<stop  offset="1" style="stop-color:#696969"/>
	</radialGradient>
	<path fill="url(#SVGID_1_)" d="M-326.9,633.6l-17.4,17.4l-6.7-6.7l17.4-17.4l-3.3-3.4l-21.4,21.4l13.4,13.4l21.4-21.4L-326.9,633.6
		z"/>
	
		<radialGradient id="SVGID_2_" cx="-487.36" cy="417.4622" r="16.5074" gradientTransform="matrix(0.7782 0.4695 0.2658 -0.4405 -83.8265 1054.7998)" gradientUnits="userSpaceOnUse">
		<stop  offset="0" style="stop-color:#4A4A4A"/>
		<stop  offset="0.7396" style="stop-color:#4C4C4C;stop-opacity:0"/>
	</radialGradient>
	<polygon fill="url(#SVGID_2_)" points="-345.1,650.2 -354.4,641 -358.3,644.9 -344.9,658.3 	"/>
	<polygon points="-334.2,634.6 -340.9,640.9 -340.9,641.3 -337.8,644.4 -334.2,640.9 -330.6,644.4 -337.6,651.3 -351.2,637.7 
		-341.1,627.6 -345,623.9 -358.5,636.9 -358.5,637.3 -337,658.7 -323.6,645.3 -323.5,644.9 	"/>
	
		<radialGradient id="SVGID_3_" cx="-1316.4865" cy="3081.0518" r="40.3002" gradientTransform="matrix(-0.279 0.865 0.7062 0.2278 -2885.593 1063.7747)" gradientUnits="userSpaceOnUse">
		<stop  offset="1.100000e-02" style="stop-color:#737373"/>
		<stop  offset="0.2242" style="stop-color:#575757"/>
		<stop  offset="0.4058" style="stop-color:#454545"/>
		<stop  offset="0.6124" style="stop-color:#383838"/>
		<stop  offset="0.7982" style="stop-color:#333333"/>
	</radialGradient>
	<polygon fill="url(#SVGID_3_)" points="-334.2,634.2 -340.9,640.9 -337.6,644.2 -334.2,641 -330.9,644.3 -337.6,651 -351,637.6 
		-340.9,627.5 -344.9,623.5 -358.3,636.9 -336.9,658.3 -323.5,644.9 	"/>
	
		<linearGradient id="SVGID_4_" gradientUnits="userSpaceOnUse" x1="-467.9868" y1="123.7973" x2="-460.3631" y2="122.1769" gradientTransform="matrix(1 0 0 -1 118 756.7681)">
		<stop  offset="0" style="stop-color:#535353;stop-opacity:0.6"/>
		<stop  offset="0.6754" style="stop-color:#606060;stop-opacity:0"/>
	</linearGradient>
	<polygon fill="url(#SVGID_4_)" points="-347.5,640.9 -340.9,627.5 -351,637.6 	"/>
	<polygon fill="#1F1F1F" points="-344.9,658.7 -331.3,645 -330.8,644.3 -334.2,641.3 -344.3,651.3 	"/>
	
		<linearGradient id="SVGID_5_" gradientUnits="userSpaceOnUse" x1="-455.3861" y1="106.9245" x2="-449.0283" y2="103.3941" gradientTransform="matrix(1 0 0 -1 118 756.7681)">
		<stop  offset="0" style="stop-color:#000000"/>
		<stop  offset="0.4079" style="stop-color:#030303;stop-opacity:0.1751"/>
		<stop  offset="0.5938" style="stop-color:#000000;stop-opacity:0"/>
	</linearGradient>
	<polygon fill="url(#SVGID_5_)" points="-331.5,652.9 -336.9,658.3 -340.8,654.5 -331.3,645 	"/>
	
		<radialGradient id="SVGID_6_" cx="-698.5923" cy="2375.6113" r="20.6866" gradientTransform="matrix(0.1578 0.895 0.7307 -0.1288 -1962.781 1567.2102)" gradientUnits="userSpaceOnUse">
		<stop  offset="0" style="stop-color:#FFFFFF"/>
		<stop  offset="0.3219" style="stop-color:#C7C7C7"/>
		<stop  offset="0.3474" style="stop-color:#C1C1C1"/>
		<stop  offset="0.5649" style="stop-color:#939393"/>
		<stop  offset="0.7321" style="stop-color:#767676"/>
		<stop  offset="0.828" style="stop-color:#6B6B6B"/>
	</radialGradient>
	<polygon fill="url(#SVGID_6_)" points="-334.2,640.9 -344.9,651.6 -344.9,658.3 -330.8,644.2 	"/>
</g>
</svg>
